<?xml version="1.0" encoding="UTF-8" standalone="no"?>
<!-- Created with Inkscape (http://www.inkscape.org/) -->

<svg
   width="173.34007mm"
   height="204.86412mm"
   viewBox="0 0 173.34007 204.86412"
   version="1.1"
   id="svg1"
   inkscape:version="1.3 (0e150ed6c4, 2023-07-21)"
   sodipodi:docname="daisyShip.svg"
   xmlns:inkscape="http://www.inkscape.org/namespaces/inkscape"
   xmlns:sodipodi="http://sodipodi.sourceforge.net/DTD/sodipodi-0.dtd"
   xmlns:xlink="http://www.w3.org/1999/xlink"
   xmlns="http://www.w3.org/2000/svg"
   xmlns:svg="http://www.w3.org/2000/svg">
  <sodipodi:namedview
     id="namedview1"
     pagecolor="#ffffff"
     bordercolor="#000000"
     borderopacity="0.25"
     inkscape:showpageshadow="2"
     inkscape:pageopacity="0.0"
     inkscape:pagecheckerboard="0"
     inkscape:deskcolor="#d1d1d1"
     inkscape:document-units="mm"
     inkscape:zoom="0.70822811"
     inkscape:cx="321.22419"
     inkscape:cy="533.02035"
     inkscape:window-width="1920"
     inkscape:window-height="991"
     inkscape:window-x="-9"
     inkscape:window-y="-9"
     inkscape:window-maximized="1"
     inkscape:current-layer="layer1" />
  <defs
     id="defs1">
    <linearGradient
       inkscape:collect="always"
       xlink:href="#linearGradient40"
       id="linearGradient41"
       x1="221.67586"
       y1="-121.47288"
       x2="125.49884"
       y2="-60.54953"
       gradientUnits="userSpaceOnUse"
       gradientTransform="translate(-34.949229,261.45702)" />
    <linearGradient
       id="linearGradient40"
       inkscape:collect="always">
      <stop
         style="stop-color:#f2f2f2;stop-opacity:1;"
         offset="0"
         id="stop40" />
      <stop
         style="stop-color:#c2c2c2;stop-opacity:1;"
         offset="1"
         id="stop41" />
    </linearGradient>
    <linearGradient
       inkscape:collect="always"
       xlink:href="#linearGradient38"
       id="linearGradient39"
       x1="72.985443"
       y1="-119.36658"
       x2="120.26084"
       y2="-74.873589"
       gradientUnits="userSpaceOnUse"
       gradientTransform="translate(-34.949229,261.45702)" />
    <linearGradient
       id="linearGradient38"
       inkscape:collect="always">
      <stop
         style="stop-color:#f2f2f2;stop-opacity:1;"
         offset="0"
         id="stop38" />
      <stop
         style="stop-color:#d8d8d8;stop-opacity:1;"
         offset="1"
         id="stop39" />
    </linearGradient>
    <linearGradient
       inkscape:collect="always"
       xlink:href="#linearGradient32"
       id="linearGradient33"
       x1="214.09889"
       y1="-121.60679"
       x2="169.81226"
       y2="-103.4002"
       gradientUnits="userSpaceOnUse"
       gradientTransform="translate(-34.949229,261.45702)" />
    <linearGradient
       id="linearGradient32"
       inkscape:collect="always">
      <stop
         style="stop-color:#f2f2f2;stop-opacity:1;"
         offset="0"
         id="stop32" />
      <stop
         style="stop-color:#b9b9b9;stop-opacity:1;"
         offset="1"
         id="stop33" />
    </linearGradient>
    <linearGradient
       inkscape:collect="always"
       xlink:href="#linearGradient30"
       id="linearGradient31"
       x1="79.719353"
       y1="-112.05602"
       x2="124.37316"
       y2="-112.05602"
       gradientUnits="userSpaceOnUse"
       gradientTransform="translate(-34.949229,261.45702)" />
    <linearGradient
       id="linearGradient30"
       inkscape:collect="always">
      <stop
         style="stop-color:#f9f9f9;stop-opacity:1;"
         offset="0"
         id="stop30" />
      <stop
         style="stop-color:#bfbfbf;stop-opacity:1;"
         offset="1"
         id="stop31" />
    </linearGradient>
    <linearGradient
       inkscape:collect="always"
       xlink:href="#linearGradient30"
       id="linearGradient37"
       x1="144.64258"
       y1="-134.737"
       x2="133.40404"
       y2="-95.764015"
       gradientUnits="userSpaceOnUse"
       gradientTransform="translate(-34.949229,261.45702)" />
    <linearGradient
       inkscape:collect="always"
       xlink:href="#linearGradient34"
       id="linearGradient35"
       x1="149.5943"
       y1="-131.9689"
       x2="162.32182"
       y2="-96.921318"
       gradientUnits="userSpaceOnUse"
       gradientTransform="translate(-34.949229,261.45702)" />
    <linearGradient
       id="linearGradient34"
       inkscape:collect="always">
      <stop
         style="stop-color:#dcdcdc;stop-opacity:1;"
         offset="0"
         id="stop34" />
      <stop
         style="stop-color:#7d7d7d;stop-opacity:1;"
         offset="1"
         id="stop35" />
    </linearGradient>
  </defs>
  <g
     inkscape:label="Layer 1"
     inkscape:groupmode="layer"
     id="layer1"
     transform="translate(-20.124281,-7.4884929)">
    <path
       id="path37"
       style="fill:url(#linearGradient41);stroke-width:6.765;stroke-linecap:round"
       d="m 189.03261,138.4519 -117.626739,54.20259 38.287479,16.506 38.90714,-5.87926 z"
       sodipodi:nodetypes="ccccc" />
    <path
       id="rect37"
       style="fill:url(#linearGradient39);stroke-width:6.765;stroke-linecap:round"
       d="m 34.852391,137.80116 73.106969,35.77344 -34.057229,20.30003 -8.84867,-4.1297 z"
       sodipodi:nodetypes="ccccc" />
    <path
       style="fill:#333333;stroke-width:0.800896"
       d="m 65.163621,192.25213 c -0.88634,-0.25166 -1.76474,-0.58541 -1.95201,-0.74166 -0.18726,-0.15626 -1.0106,-1.63429 -1.82963,-3.28451 -0.81903,-1.65023 -1.93263,-3.76326 -2.47467,-4.69564 -2.47341,-4.25458 -5.79091,-9.7216 -7.07232,-11.6547 -0.77257,-1.16547 -1.91899,-3.02492 -2.5476,-4.13211 -0.62862,-1.1072 -1.8546,-3.15737 -2.7244,-4.55593 -0.8698,-1.39856 -2.21784,-3.63945 -2.99564,-4.97973 -7.23833,-12.47308 -10.11158,-17.36802 -11.24481,-19.15693 -1.60857,-2.53928 -1.90799,-3.45048 -1.3924,-4.23737 0.32682,-0.49879 0.48982,-0.55081 1.72599,-0.55081 0.7508,0 2.67957,0.27683 4.28616,0.61517 1.6066,0.33834 3.63626,0.72775 4.51036,0.86535 0.8741,0.1376 4.06854,0.72379 7.09877,1.30265 3.03022,0.57886 6.79681,1.29174 8.37019,1.58417 1.57339,0.29242 4.52945,0.89949 6.56902,1.34903 2.03956,0.44954 5.18634,1.11508 6.99282,1.47898 1.80647,0.36389 4.76253,0.98886 6.569,1.38882 1.80649,0.39996 5.72811,1.20463 8.71471,1.78815 2.98661,0.58352 5.66983,1.15206 5.96269,1.26341 0.62399,0.23724 0.75098,0.11948 2.49336,-2.31197 1.49027,-2.07963 7.503549,-10.75577 9.529099,-13.74885 0.8741,-1.29162 2.52861,-3.66123 3.67669,-5.26579 1.14807,-1.60456 2.42082,-3.418 2.82833,-4.02988 0.4075,-0.61187 0.89851,-1.10947 1.09114,-1.10578 0.19262,0.004 0.77933,0.64433 1.30379,1.42364 0.52446,0.7793 1.7641,2.53003 2.75474,3.89049 2.72531,3.74268 5.30325,7.3665 9.48043,13.32667 2.08289,2.97196 4.24024,6.03084 4.79414,6.79753 l 1.00707,1.39398 2.05378,-0.39492 c 1.12957,-0.21721 3.00733,-0.62423 4.1728,-0.90449 1.16547,-0.28026 3.93081,-0.84319 6.14521,-1.25097 2.2144,-0.40777 6.26705,-1.22995 9.0059,-1.82705 2.73886,-0.59711 5.88562,-1.26593 6.99282,-1.48627 2.88606,-0.57435 8.73474,-1.85952 10.59518,-2.32814 0.8741,-0.22017 2.97195,-0.65082 4.66188,-0.95699 3.03231,-0.54937 10.45657,-2.06988 14.01187,-2.86966 2.37878,-0.53512 2.97689,-0.52391 3.50762,0.0657 0.94842,1.05365 0.81737,1.90086 -0.6965,4.50296 -0.54245,0.93237 -1.43506,2.50575 -1.98358,3.4964 -1.00203,1.80971 -1.43566,2.54919 -6.5236,11.12494 -1.52122,2.56403 -3.60084,6.09222 -4.62138,7.84043 -1.02054,1.74821 -18.68633,29.46746 -19.85452,31.44876 -1.1682,1.9813 -4.68226,8.15729 -5.03956,8.87885 -0.61817,1.24843 -0.68757,1.31254 -1.43382,1.3244 -0.43131,0.007 -1.27227,0.11713 -1.86878,0.24506 -0.59651,0.12794 -1.14257,0.17461 -1.21347,0.10371 -0.11705,-0.11705 3.06391,-5.93178 4.39337,-8.37779 1.31307,-2.41587 18.90544,-30.08084 20.43206,-32.56347 0.35833,-0.58274 1.13987,-1.94562 1.73674,-3.02863 0.59687,-1.08301 1.99966,-3.46692 3.11731,-5.29758 2.08968,-3.42282 3.07719,-5.08816 5.60515,-9.45247 0.80334,-1.38689 1.80011,-2.98412 2.21505,-3.54938 0.41494,-0.56528 0.69685,-1.02777 0.62646,-1.02777 -0.0704,0 -3.01073,1.41747 -6.53408,3.14992 -9.17396,4.5109 -13.32729,6.52759 -17.42508,8.46096 -9.83361,4.63956 -15.46314,7.28662 -19.70704,9.26646 -2.56404,1.19615 -6.28295,2.95997 -8.26424,3.91957 -6.02344,2.91734 -12.42816,5.87507 -18.06478,8.34241 -0.96152,0.42089 -2.48723,1.09021 -3.39046,1.48739 -0.90324,0.39717 -1.92435,1.16821 -2.62065,1.30918 -0.69629,0.14098 -25.105469,13.01523 -25.283289,13.06933 -0.21255,0.0646 -0.39589,-2.18555 -0.1254,-2.40593 0.22623,-0.18433 22.816799,-12.89476 22.647749,-13.00883 -0.1918,-0.12942 1.23034,0.71162 -5.79627,-2.33113 -4.812819,-2.08411 -13.475749,-6.01841 -13.773739,-6.25539 -0.11655,-0.0927 -1.35618,-0.69188 -2.75475,-1.33154 -8.14878,-3.727 -10.8618,-4.99985 -17.37609,-8.15225 -3.9626,-1.91759 -9.58864,-4.62884 -12.50232,-6.02501 -8.48883,-4.06768 -16.67491,-8.1437 -17.54443,-8.73575 -0.44223,-0.30112 -0.84749,-0.54748 -0.90059,-0.54748 -0.2625,0 -0.0198,0.63416 0.72504,1.89439 0.45187,0.76457 1.80492,3.05885 3.00677,5.09843 1.20185,2.03957 3.58137,6.04454 5.28781,8.89995 1.70644,2.8554 3.85107,6.47894 4.76584,8.05233 0.91477,1.57338 2.965,4.95854 4.55607,7.52258 3.49854,5.63793 4.52012,7.36056 6.69404,11.28784 0.92053,1.66298 2.36503,4.2541 3.21,5.75803 0.98186,1.7476 1.5363,2.96976 1.5363,3.38649 0,0.35862 -0.0715,0.6434 -0.15893,0.63283 -0.0874,-0.0106 -0.88411,-0.22511 -1.77044,-0.47678 z"
       id="path18-6"
       sodipodi:nodetypes="ssssssscsssssssssssssssscsssscssssssssssssssscsssssssssssssssscssssssssssssssssssss" />
    <path
       style="fill:#333333"
       d="m 78.018841,91.073166 c -3.70681,-0.21859 8.89059,48.662754 4.66281,51.130734 -1.13636,-0.96649 -3.45586,-5.51967 -4.56974,-8.97025 -1.55334,-4.81189 -6.29408,-25.12898 -6.5065,-29.06638 -0.32186,-5.965114 -0.25761,-6.323454 1.80244,-10.053384"
       id="path28" />
    <path
       style="fill:#333333"
       d="m 73.054891,92.112546 c -5.45367,4.79748 -9.90201,6.83107 -13.83534,6.32491 -1.22564,-0.15772 -1.64498,-0.35671 -2.98216,-1.41507 -1.9015,-1.50561 -2.69194,-2.90059 -3.0794,-5.43799 -0.74906,-4.90551 3.56825,-14.30748 9.06171,-19.73403 0.5999,-0.5926 1.03288,-1.12304 0.96218,-1.17873 -0.0707,-0.0557 -0.62182,0.10234 -1.22476,0.35108 -2.64976,1.09391 -9.45309,1.06498 -15.01446,-0.0638 -3.40472,-0.69107 -4.76183,-1.27565 -6.92973,-2.98502 -6.48583,-5.11452 -2.38462,-12.75955 8.79865,-16.40121 1.92965,-0.62839 7.20258,-1.32555 10.22423,-1.35183 l 1.47401,-0.0128 -3.24189,-2.44621 c -2.90195,-2.18973 -3.4104,-2.66716 -4.84922,-4.55351 -2.22288,-2.91425 -4.51397,-7.17101 -5.03102,-9.34746 -0.61907,-2.60588 -0.25598,-4.96305 1.04451,-6.78105 0.74935,-1.04753 1.28988,-1.5559 2.07405,-1.95058 l 1.3e-4,4.3e-4 c 3.48818,-1.7557 9.49214,-0.77828 15.65512,2.54859 1.549,0.83618 2.95725,1.83181 4.86662,3.44068 l 2.68686,2.26404 -0.44301,-2.54701 c -1.58786,-9.12914 -0.63919,-16.19897 2.74994,-20.49333 1.39436,-1.76676 2.35053,-2.42413 4.00213,-2.75139 2.77725,-0.55028 6.0817,1.13875 8.53603,4.36308 1.31061,1.7218 3.33154,5.918 4.39314,9.12182 0.84376,2.54641 1.45876,6.71631 1.29037,8.74918 -0.057,0.68873 -0.0436,1.2451 0.0298,1.23638 0.0734,-0.009 0.80022,-1.06767 1.61516,-2.35317 2.2835,-3.60221 6.110509,-7.34519 9.994329,-9.77486 4.68754,-2.93249 9.22678,-3.0421 12.13269,-0.29299 1.47267,1.39319 2.21678,2.96364 2.4884,5.25172 0.37042,3.12054 -0.53271,6.44102 -3.24068,11.91477 -1.30033,2.62843 -4.52581,7.08406 -6.0558,8.3654 l -0.72535,0.60746 1.15676,-0.2626 c 5.6683,-1.28697 11.01409,-1.25321 16.19466,0.10227 4.30689,1.12691 6.37823,2.3298 8.02352,4.65959 0.6362,0.90086 0.84601,1.60695 0.98135,3.30267 0.20085,2.51616 -0.0331,3.08788 -2.32786,5.68894 -3.96092,4.48963 -10.81566,6.74369 -20.57063,6.76433 -0.64811,0.001 -0.64616,0.0158 0.0491,0.36521 0.39813,0.20008 1.98008,1.27039 3.51542,2.37849 3.34769,2.4161 5.5652,4.73137 7.96597,8.31712 5.59385,8.35488 4.19159,15.21155 -3.25352,15.90885 -1.1305,0.10589 -2.66693,0.10291 -3.4143,-0.007 -1.59374,-0.23353 -5.48123,-1.66 -8.23068,-3.02015 -2.38024,-1.17748 -7.17998,-4.62593 -8.4421,-6.06532 -1.03736,-1.18306 -1.31425,-1.1606 -0.89949,0.0729 0.53953,1.60456 0.90771,6.64924 0.68036,9.32136 -0.27888,3.27759 -1.08569,7.22148 -1.89667,9.271504 -0.810259,2.04817 -2.851629,4.65285 -4.336869,5.5336 -1.33517,0.79179 -3.42421,1.00902 -4.88339,0.50778 -3.51802,-1.20846 -6.97706,-6.15929 -9.15676,-13.105814 -0.9199,-2.93164 -1.61838,-7.43285 -1.52567,-9.83186 0.0525,-1.35954 0.0308,-1.41491 -0.28682,-0.73114 -0.18898,0.40688 -1.12996,1.86336 -2.09107,3.23663"
       id="path1-5" />
    <path
       style="fill:#333333;stroke-width:2.07109"
       d="m 86.264851,120.72169 c 2.33196,-0.2768 4.43952,1.2411 4.69346,3.38033 0.39172,3.30012 -4.14891,5.80021 -6.7758,3.7308 -1.43518,-1.13059 -1.81574,-4.33647 -0.68514,-5.77163 0.48323,-0.61339 1.7286,-1.21618 2.76748,-1.3395 z"
       id="path25-3" />
    <path
       style="fill:#333333;stroke-width:3.21934"
       d="m 63.716371,104.03734 c 1.92318,-0.22825 4.10235,0.0621 4.84274,0.64538 6.36415,5.01355 2.82191,13.54593 -4.36905,10.5239 -3.35536,-1.41013 -4.38683,-2.71432 -5.011,-6.33611 -0.5789,-3.35926 0.33662,-4.33453 4.53731,-4.83317 z"
       id="path24-8" />
    <path
       style="fill:#f2f2f2"
       d="m 97.969841,71.931576 c 4.244109,7.20196 13.451599,14.14847 20.745489,15.65123 2.9511,0.60803 4.66131,0.3228 5.65358,-0.94289 1.06189,-1.35442 0.42395,-4.6064 -1.45897,-7.43775 -2.31573,-3.48219 -3.8619,-5.10327 -7.79652,-8.17433 -4.13789,-3.2297 -7.23325,-4.93772 -10.67617,-5.8911 -2.89544,-0.80176 -2.61259,-0.89092 -3.82589,1.20606 -0.862679,1.491 -1.262219,1.97445 -2.174119,2.63069 -0.61448,0.44219 -1.20502,0.89156 -1.31233,0.9986 -0.10735,0.10701 0.27282,0.98882 0.84493,1.95949 z"
       id="path10-5" />
    <path
       style="fill:#f2f2f2"
       d="m 102.06332,53.732396 c 0.43094,1.04389 0.87374,4.68667 0.71388,5.87307 -0.0782,0.58007 -0.0247,0.60792 1.79089,0.93335 11.00839,1.97316 22.77521,-0.14952 27.27896,-4.92099 2.13433,-2.26119 1.92358,-3.67264 -0.81833,-5.4805 -1.96177,-1.29347 -3.7858,-1.89558 -6.79469,-2.24289 -5.00124,-0.57728 -10.37498,-0.11825 -15.04054,1.28477 -2.38644,0.71766 -6.90483,2.67511 -7.30773,3.16588 -0.14494,0.17592 -0.0647,0.80044 0.17756,1.38731 z"
       id="path9-7" />
    <path
       style="fill:#f2f2f2"
       d="m 84.610891,75.393516 c -0.7798,4.50059 -0.91592,9.65905 -0.3601,13.6469 0.43507,3.12152 2.3418,8.58401 3.72493,10.6712 3.19818,4.826254 5.70888,5.537004 7.58406,2.146944 2.79146,-5.046544 3.27858,-13.133914 1.25293,-20.801764 -0.96936,-3.66948 -2.70862,-8.25764 -3.30722,-8.72448 -0.16049,-0.12516 -0.77811,-0.0741 -1.37247,0.11341 -1.42654,0.45013 -4.8032,0.68638 -5.98677,0.41888 -0.51806,-0.11709 -0.97607,-0.16955 -1.0178,-0.11659 -0.0417,0.053 -0.27462,1.24344 -0.51756,2.6455 z"
       id="path8-0" />
    <path
       style="fill:#f2f2f2"
       d="m 60.333581,80.722066 c -1.12419,1.93709 -2.81953,6.24931 -3.19832,8.13517 -0.47386,2.35916 0.42546,4.79925 1.98511,5.38615 1.00667,0.37882 3.71242,-0.002 5.3127,-0.74771 3.56411,-1.66083 6.95545,-4.78994 10.58691,-9.76829 2.80581,-3.84648 3.87516,-5.77471 5.38045,-9.70196 0.83696,-2.1836 0.90709,-2.56463 0.48834,-2.65347 -0.4678,-0.0992 -4.35017,-3.10898 -5.22837,-4.05325 -0.37285,-0.4009 -0.65969,-0.3195 -2.5101,0.71205 -4.79776,2.67519 -9.98477,7.81134 -12.81674,12.69108 z"
       id="path7-5" />
    <path
       style="fill:#f2f2f2"
       d="m 96.114271,36.104566 c -0.7298,1.73644 -2.32362,6.14832 -2.74532,7.59938 -0.10382,0.35724 0.0107,0.56304 0.39779,0.71471 1.11011,0.43501 4.33106,2.81285 4.79526,3.54008 0.44913,0.70359 0.50885,0.71458 1.459919,0.26861 1.30083,-0.60996 4.36208,-2.67675 5.91709,-3.99488 1.813,-1.53684 6.05805,-7.04594 7.50987,-9.7461 2.93928,-5.46656 3.88086,-9.51927 2.76085,-11.88312 -0.47821,-1.00927 -0.71739,-1.26447 -1.48918,-1.58882 -1.60041,-0.67258 -4.92099,0.18317 -7.55443,1.94689 -3.81437,2.5546 -9.386799,9.18154 -11.051849,13.14325 z"
       id="path6-2" />
    <path
       style="fill:#d4aa00"
       d="m 77.267911,54.929636 c -0.65116,2.07003 -0.36273,5.64576 0.62093,7.69742 0.66784,1.39296 0.90894,1.65316 3.21602,3.47062 2.37232,1.86887 2.58769,1.98622 4.4129,2.40362 4.85794,1.11106 9.86321,-0.94593 11.94302,-4.90812 2.801229,-5.3366 1.01803,-11.78679 -4.03561,-14.59748 -6.2359,-3.46824 -14.10925,-0.57665 -16.15727,5.93394 z"
       id="path5-7" />
    <path
       style="fill:#f2f2f2"
       d="m 40.729401,61.535176 c -0.67938,2.16611 2.81061,4.639 8.11534,5.75026 3.54162,0.74193 6.1679,0.7482 11.4693,0.0274 4.86572,-0.66154 6.62824,-1.14739 10.63466,-2.93161 l 2.59983,-1.15779 -0.2403,-0.71809 c -0.37999,-1.13562 -0.64035,-4.64547 -0.40722,-5.4895 0.2491,-0.90184 0.22951,-0.91269 -3.31151,-1.83133 -4.24166,-1.10043 -10.81644,-1.3918 -15.08418,-0.66846 -4.11306,0.69712 -9.5372,2.90215 -11.87178,4.82615 -1.60107,1.3195 -1.6467,1.37207 -1.90416,2.19293 z"
       id="path4-4" />
    <path
       style="fill:#f2f2f2"
       d="m 77.450931,15.849286 c -0.86182,2.38323 -1.11545,6.81564 -0.65192,11.39284 0.42325,4.17949 0.99864,6.67959 2.41113,10.47654 0.91191,2.45135 2.61876,5.8771 3.12814,6.27838 0.1662,0.13093 1.13767,-0.0268 2.15882,-0.35054 1.02114,-0.32376 2.49765,-0.55442 3.28112,-0.51264 1.66945,0.089 1.58235,0.22596 2.425,-3.81269 1.23935,-5.93994 0.60532,-13.50875 -1.61499,-19.27899 -1.507,-3.91648 -2.73114,-5.91898 -4.45913,-7.29449 -3.08534,-2.45603 -4.98798,-1.57236 -6.67817,3.10159 z"
       id="path3-3" />
    <path
       style="fill:#f2f2f2"
       d="m 50.918021,31.033526 c -0.10487,2.12333 1.96916,6.24832 4.85238,9.65077 2.17722,2.56931 6.95408,6.46657 9.87358,8.0555 2.16598,1.17882 5.74073,2.61599 7.25159,2.9154 0.91405,0.18114 1.16467,0.12086 1.3568,-0.32633 0.52523,-1.22248 2.47344,-3.90734 3.24776,-4.47578 0.59612,-0.43763 0.79652,-0.70722 0.73415,-0.98768 -0.17747,-0.79823 -2.77645,-4.88894 -4.17399,-6.56986 -2.05898,-2.47646 -8.10933,-7.25294 -10.98543,-8.67244 -3.76728,-1.8594 -7.83589,-2.65305 -10.22557,-1.99469 -1.43305,0.39481 -1.85816,0.92422 -1.93127,2.40516 z"
       id="path2-0" />
    <path
       style="fill:url(#linearGradient33);stroke-width:0.800896"
       d="m 142.16007,157.49541 c 1.33001,-0.62493 3.1256,-1.47784 3.99021,-1.89537 0.86462,-0.41753 3.71755,-1.73015 6.33986,-2.91695 2.62231,-1.18679 5.86443,-2.70656 7.20472,-3.37724 1.34029,-0.67069 3.86725,-1.889 5.61545,-2.70737 1.7482,-0.81837 4.41819,-2.08093 5.9333,-2.80569 1.51511,-0.72477 3.93693,-1.88003 5.38181,-2.56727 1.4449,-0.68723 2.57986,-1.29673 2.52213,-1.35446 -0.16085,-0.16085 -4.66695,0.64274 -7.16228,1.27729 -1.22375,0.31119 -3.55998,0.83922 -5.19164,1.1734 -2.9696,0.6082 -7.95525,1.6533 -14.5154,3.04271 -1.92302,0.40729 -6.73853,1.4059 -10.70112,2.21914 -3.9626,0.81324 -7.47954,1.584 -7.81543,1.7128 -0.5616,0.21535 -0.58415,0.26356 -0.28048,0.59962 0.30427,0.33673 2.51663,3.45907 5.10114,7.19934 0.58387,0.84496 1.08363,1.53629 1.11056,1.53629 0.0269,0 1.13717,-0.5113 2.46717,-1.13624 z"
       id="path22-8" />
    <path
       style="fill:url(#linearGradient31);stroke-width:0.800896"
       d="m 83.480661,158.32823 c 0.0641,-0.16688 0.63051,-1.00125 1.25883,-1.85415 2.64572,-3.59141 4.86023,-6.99409 4.67342,-7.1809 -0.21491,-0.21491 -2.77836,-0.80288 -6.86943,-1.57563 -1.467,-0.27709 -3.61252,-0.74185 -4.76783,-1.0328 -3.1737,-0.79924 -32.04155,-6.49889 -32.82659,-6.48126 -0.56789,0.0127 0.1777,0.41406 2.78671,1.4999 1.78544,0.74308 4.88065,2.20259 15.43701,7.27913 7.63013,3.66934 11.62457,5.61982 15.45766,7.54795 2.22061,1.11701 4.19413,2.04673 4.38562,2.06606 0.19149,0.0193 0.40056,-0.10142 0.4646,-0.2683 z"
       id="path21-3" />
    <path
       style="fill:url(#linearGradient37);fill-opacity:1;stroke-width:0.800896"
       d="m 109.58418,167.16086 c 0.002,-1.95221 0.0299,-11.79782 0.0609,-21.87913 0.031,-10.08131 0.0524,-18.42502 0.0476,-18.54156 -0.005,-0.11655 -0.31825,0.28447 -0.69654,0.89115 -1.44121,2.31129 -5.11519,7.87571 -6.40721,9.70402 -0.74124,1.04893 -2.14153,3.04525 -3.111749,4.43627 -0.97021,1.39102 -2.7176,3.83568 -3.88307,5.43258 -1.16546,1.5969 -2.47818,3.41484 -2.91714,4.03988 -0.43896,0.62503 -1.98546,2.80517 -3.43667,4.84474 -1.45121,2.03957 -2.64161,3.81242 -2.64532,3.93968 -0.008,0.2673 4.34918,2.3483 11.85983,5.66452 4.940339,2.18133 7.730129,3.46156 9.217809,4.23006 0.81583,0.42143 1.57868,0.77098 1.69523,0.77676 0.13308,0.006 0.21358,-1.30977 0.21642,-3.53897 z"
       id="path20-4" />
    <path
       style="fill:url(#linearGradient35);fill-opacity:1;stroke-width:0.800896"
       d="m 115.3491,170.12563 c 0.95879,-0.49421 3.10432,-1.52638 4.76783,-2.29369 1.66351,-0.76731 3.5967,-1.66258 4.29598,-1.98947 0.69928,-0.3269 2.03114,-0.91494 2.95968,-1.30677 0.92854,-0.39183 3.34253,-1.52423 5.36442,-2.51646 l 3.67615,-1.80405 -1.55014,-2.15837 c -0.85259,-1.18712 -2.26533,-3.17511 -3.13943,-4.41778 -0.8741,-1.24266 -2.16142,-3.05178 -2.8607,-4.02027 -0.69929,-0.96849 -1.91001,-2.65043 -2.6905,-3.73765 -0.78048,-1.08722 -1.83823,-2.54979 -2.35053,-3.25015 -2.07171,-2.83219 -6.19187,-8.73299 -7.3002,-10.45519 -0.6489,-1.00829 -1.49336,-2.21774 -1.87659,-2.68767 -0.38322,-0.46992 -0.8215,-1.13742 -0.97396,-1.48332 -0.23291,-0.52844 -0.29411,1.7239 -0.38314,14.09839 -0.12057,16.75878 -0.0485,29.09145 0.1696,28.99 0.0815,-0.038 0.93273,-0.47335 1.89153,-0.96755 z"
       id="path19-9" />
    <path
       style="fill:#333333"
       d="m 109.28886,211.78353 c -1.52797,-0.40323 -3.42104,-0.94701 -4.20682,-1.20841 -1.98028,-0.65876 -11.301129,-4.49051 -15.769219,-6.48264 -2.03729,-0.90834 -5.54964,-2.41564 -7.80521,-3.34956 -2.25557,-0.93392 -4.51776,-1.89054 -5.02708,-2.12582 -5.33143,-2.46284 -11.50667,-4.90635 -16.13959,-6.38634 -5.01344,-1.60155 -12.49098,-2.69968 -18.38064,-2.69933 -6.61835,3.9e-4 -9.69747,0.43598 -18.17304,2.57084 -3.08024,0.77586 -3.66298,0.67737 -3.66298,-0.61908 0,-0.83653 0.71177,-1.50483 2.63862,-2.4775 2.71206,-1.36905 4.23859,-1.87909 8.077,-2.69865 6.49,-1.38572 17.06957,-1.34469 24.34168,0.0944 6.50443,1.28717 9.82585,2.36562 15.32756,4.97676 1.88172,0.89308 5.09641,2.34511 7.14375,3.22675 2.04733,0.88163 4.19415,1.84241 4.77069,2.13507 1.2156,0.61702 8.62135,3.75613 12.37149,5.24395 3.49031,1.38473 10.447409,3.76171 13.123389,4.48377 l 4.16803,0.47689 c 20.75653,-1.031 30.44056,-1.55066 48.13249,-7.70508 15.66099,-4.61824 8.8094,-3.24284 21.39617,-8.53203 2.82509,-1.18716 4.65047,-2.66967 6.30436,-3.03145 9.39885,-2.05595 4.80092,0.19231 1.08627,3.48332 -4.43981,3.93347 -20.34228,11.32997 -25.12689,12.86459 -16.23127,6.15174 -22.97076,6.6253 -50.68383,8.31604 -1.53858,0.0939 -3.16898,-0.36188 -3.9062,-0.55643 z"
       id="path14-2"
       sodipodi:nodetypes="cssssssssssssscssccssscscc" />
    <path
       id="rect41"
       style="fill:#aa8800;stroke-width:6.765;stroke-linecap:round"
       d="m 94.918881,50.005266 c 3.61583,3.02393 5.668589,7.98353 2.18789,14.38201 -5.76503,7.47216 -15.16858,4.23141 -17.93567,0.10725 7.46909,0.23286 14.73009,-1.32449 15.74778,-14.48926 z"
       sodipodi:nodetypes="cccc" />
    <path
       style="fill:#cccccc;fill-opacity:1"
       d="m 93.368951,43.703946 c -0.35894,0.0978 0.0107,0.56304 0.39779,0.71471 1.11011,0.43501 4.33106,2.81285 4.79526,3.54008 0.44913,0.70359 0.50885,0.71458 1.459919,0.26861 1.30083,-0.60996 4.36208,-2.67675 5.91709,-3.99488 1.813,-1.53684 6.05804,-7.04594 7.50987,-9.7461 1.70322,-3.16771 2.73565,-5.86066 3.08485,-8.02536 0.25341,-1.57095 -0.19559,-4.76401 -0.70021,-3.78658 -9.38942,18.18706 -13.48303,18.58309 -22.464569,21.02952 z"
       id="path29"
       sodipodi:nodetypes="sssssssss" />
    <path
       style="fill:#cccccc"
       d="m 102.7772,59.605466 c -0.34039,-0.0206 0.015,0.43855 0.26167,0.59733 0.30343,0.19534 0.77141,0.20019 1.52922,0.33602 11.00839,1.97317 22.7752,-0.14953 27.27896,-4.92099 0.48476,-0.51358 0.94797,-1.04166 1.17633,-1.59322 0.72539,-1.75209 -0.10375,-3.26549 -1.87265,-1.89438 -4.00658,3.10558 -8.82528,8.65949 -28.37353,7.47524 z"
       id="path30"
       sodipodi:nodetypes="sssssss" />
    <path
       style="fill:#f2f2f2;fill-opacity:1;stroke-width:1.81696"
       d="m 64.470461,106.59069 c 1.08542,-0.12882 2.31532,0.0351 2.73319,0.36425 3.59186,2.82959 1.59265,7.64517 -2.46584,5.93957 -1.89373,-0.79586 -2.47589,-1.53193 -2.82816,-3.57603 -0.32673,-1.89593 0.18998,-2.44636 2.56081,-2.72779 z"
       id="path31" />
    <path
       style="fill:#f2f2f2;stroke-width:0.894759"
       d="m 86.630961,122.94612 c 1.00746,-0.11959 1.91797,0.53618 2.02768,1.46038 0.16924,1.42573 -1.79243,2.50582 -2.92731,1.61179 -0.62002,-0.48844 -0.78443,-1.87346 -0.29599,-2.49348 0.20877,-0.26499 0.7468,-0.52542 1.19562,-0.57869 z"
       id="path32" />
    <path
       style="fill:#cccccc"
       d="m 82.338281,43.997046 c 0.20208,0.0627 1.13767,-0.0268 2.15882,-0.35054 1.02114,-0.32376 2.49765,-0.55442 3.28112,-0.51264 1.66945,0.089 1.58235,0.22596 2.425,-3.81269 1.23935,-5.93994 0.60532,-13.50875 -1.61499,-19.27899 -1.507,-3.91648 -5.09405,-9.40988 -4.45913,-7.29449 9.36219,31.19245 -5.96823,29.9537 -1.79082,31.24935 z"
       id="path33"
       sodipodi:nodetypes="sssssss" />
    <path
       style="fill:#cccccc"
       d="m 97.969841,71.931576 c 4.244109,7.20196 13.451599,14.14847 20.745489,15.65123 2.9511,0.60803 4.22815,0.52876 5.65358,-0.94289 2.28431,-2.35839 -17.46705,-2.29763 -27.243999,-16.66783 -0.10735,0.10701 0.27282,0.98882 0.84493,1.95949 z"
       id="path34"
       sodipodi:nodetypes="csscc" />
    <path
       style="fill:#cccccc"
       d="m 59.144431,44.043136 c 0.80911,1.27983 9.88496,7.48799 13.75114,7.61206 0.93135,0.0299 1.16467,0.12086 1.3568,-0.32633 0.52523,-1.22248 2.47344,-3.90734 3.24776,-4.47578 0.59612,-0.43763 0.79652,-0.70722 0.73415,-0.98768 -1.31575,-5.79024 -6.60108,3.80221 -19.08985,-1.82227 z"
       id="path35"
       sodipodi:nodetypes="cssscc" />
    <path
       style="fill:#cccccc"
       d="m 40.729401,61.535176 c -0.67938,2.16611 2.81061,4.639 8.11534,5.75026 3.54162,0.74193 6.1679,0.7482 11.4693,0.0274 4.86572,-0.66154 6.62824,-1.14739 10.63466,-2.93161 l 2.59983,-1.15779 -0.4962,-1.93067 c -4.98452,1.82235 -29.68442,5.51942 -32.32295,0.24237 z"
       id="path36"
       sodipodi:nodetypes="ssssccss" />
    <path
       style="fill:#cccccc"
       d="m 84.610891,75.393516 c -0.7798,4.50059 -0.91592,9.65905 -0.3601,13.6469 3.15698,-5.49935 19.479489,1.78999 9.2547,-16.7081 -0.091,-0.18209 -0.77811,-0.0741 -1.37247,0.11341 -1.42654,0.45013 -4.8032,0.68638 -5.98677,0.41888 -0.51806,-0.11709 -0.97607,-0.16955 -1.0178,-0.11659 -0.0417,0.053 -0.27462,1.24344 -0.51756,2.6455 z"
       id="path38"
       sodipodi:nodetypes="scccscs" />
    <path
       style="fill:#cccccc"
       d="m 59.120371,94.243386 c 1.00667,0.37882 3.71242,-0.002 5.3127,-0.74771 3.56411,-1.66083 6.95545,-4.78994 10.58691,-9.76829 2.80581,-3.84648 3.87516,-5.77471 5.38045,-9.70196 0.83696,-2.1836 0.90709,-2.56463 0.48834,-2.65347 -0.31892,-0.16866 -5.25839,-4.19969 -5.22837,-4.05325 0.0615,10.8605 -6.18226,19.58834 -16.54003,26.92468 z"
       id="path39"
       sodipodi:nodetypes="csssccc" />
  </g>
</svg>
